<?xml version="1.0" standalone="no"?>
<!DOCTYPE svg PUBLIC "-//W3C//DTD SVG 20010904//EN"
 "http://www.w3.org/TR/2001/REC-SVG-20010904/DTD/svg10.dtd">
<svg version="1.0" xmlns="http://www.w3.org/2000/svg"
 width="379.000000pt" height="437.000000pt" viewBox="0 0 379.000000 437.000000"
 preserveAspectRatio="xMidYMid meet">

<g transform="translate(0.000000,437.000000) scale(0.100000,-0.100000)"
fill="#000000" stroke="none">
<path d="M958 3807 l-937 -542 0 -1085 0 -1085 939 -542 940 -542 940 542 939
542 0 1085 0 1085 -936 540 c-515 297 -939 541 -942 542 -3 0 -428 -243 -943
-540z m1738 -274 l774 -446 0 -907 0 -907 -777 -448 c-428 -247 -785 -449
-793 -449 -8 0 -365 202 -792 449 l-778 449 0 906 0 906 783 452 c430 249 788
450 796 447 8 -3 362 -206 787 -452z"/>
</g>
</svg>
